HIERARCHY
ROOT Hips
{
  OFFSET 5.80788e-005 67.184 3.4734
  CHANNELS 6 Xposition Yposition Zposition Zrotation Xrotation Yrotation
  JOINT Chest
  {
    OFFSET 0 8.7983 -4.7612
    CHANNELS 6 Xposition Yposition Zposition Zrotation Xrotation Yrotation
    JOINT Chest2
    {
      OFFSET 0 8.0291 0.4195
      CHANNELS 6 Xposition Yposition Zposition Zrotation Xrotation Yrotation
      JOINT Chest3
      {
        OFFSET 0 9.9351 -2.2114
        CHANNELS 6 Xposition Yposition Zposition Zrotation Xrotation Yrotation
        JOINT Neck
        {
          OFFSET 0 22.3885 -0.4656
          CHANNELS 6 Xposition Yposition Zposition Zrotation Xrotation Yrotation
          JOINT Head
          {
            OFFSET -0.0001 12.643 3.4389
            CHANNELS 6 Xposition Yposition Zposition Zrotation Xrotation Yrotation
            End Site
            {
              OFFSET 0.0001 17.6655 0.5274
            }
          }
        }
        JOINT LeftCollar
        {
          OFFSET 2.2603 21.606 7.4023
          CHANNELS 6 Xposition Yposition Zposition Zrotation Xrotation Yrotation
          JOINT LeftShoulder
          {
            OFFSET 13.5163 -1.1332 -5.0146
            CHANNELS 6 Xposition Yposition Zposition Zrotation Xrotation Yrotation
            JOINT LeftElbow
            {
              OFFSET -0.0995 -28.05 -0.2431
              CHANNELS 6 Xposition Yposition Zposition Zrotation Xrotation Yrotation
              JOINT LeftWrist
              {
                OFFSET 0.0679 -23.3996 -0.1402
                CHANNELS 6 Xposition Yposition Zposition Zrotation Xrotation Yrotation
                JOINT LeftFinger1
                {
                  OFFSET 0.7932 -9.069 2.5189
                  CHANNELS 6 Xposition Yposition Zposition Zrotation Xrotation Yrotation
                  JOINT LeftFinger11
                  {
                    OFFSET -0.8272 -3.3923 0.5977
                    CHANNELS 6 Xposition Yposition Zposition Zrotation Xrotation Yrotation
                    JOINT LeftFinger12
                    {
                      OFFSET -0.5649 -2.3158 0.4082
                      CHANNELS 6 Xposition Yposition Zposition Zrotation Xrotation Yrotation
                      End Site
                      {
                        OFFSET -0.4919 -1.6479 0.2673
                      }
                    }
                  }
                }
                JOINT LeftFinger2
                {
                  OFFSET 0.9159 -9.2044 0.2193
                  CHANNELS 6 Xposition Yposition Zposition Zrotation Xrotation Yrotation
                  JOINT LeftFinger21
                  {
                    OFFSET 0.0117 -4.1944 -0.0248
                    CHANNELS 6 Xposition Yposition Zposition Zrotation Xrotation Yrotation
                    JOINT LeftFinger22
                    {
                      OFFSET 0.0071 -2.3249 -0.0142
                      CHANNELS 6 Xposition Yposition Zposition Zrotation Xrotation Yrotation
                      End Site
                      {
                        OFFSET -0.1475 -2.0882 0.0028
                      }
                    }
                  }
                }
                JOINT LeftFinger3
                {
                  OFFSET 0.6113 -8.7231 -2.0637
                  CHANNELS 6 Xposition Yposition Zposition Zrotation Xrotation Yrotation
                  JOINT LeftFinger31
                  {
                    OFFSET -0.1927 -3.8059 -0.2383
                    CHANNELS 6 Xposition Yposition Zposition Zrotation Xrotation Yrotation
                    JOINT LeftFinger32
                    {
                      OFFSET -0.1091 -2.1688 -0.1362
                      CHANNELS 6 Xposition Yposition Zposition Zrotation Xrotation Yrotation
                      End Site
                      {
                        OFFSET -0.2358 -1.9176 -0.0906
                      }
                    }
                  }
                }
                JOINT LeftFinger4
                {
                  OFFSET -0.6151 -8.0947 -3.5641
                  CHANNELS 6 Xposition Yposition Zposition Zrotation Xrotation Yrotation
                  JOINT LeftFinger41
                  {
                    OFFSET -0.4882 -2.341 -0.6462
                    CHANNELS 6 Xposition Yposition Zposition Zrotation Xrotation Yrotation
                    JOINT LeftFinger42
                    {
                      OFFSET -0.3575 -1.7167 -0.4742
                      CHANNELS 6 Xposition Yposition Zposition Zrotation Xrotation Yrotation
                      End Site
                      {
                        OFFSET -0.4187 -1.5237 -0.3496
                      }
                    }
                  }
                }
                JOINT LeftFinger0
                {
                  OFFSET -1.42 -1.8761 1.4223
                  CHANNELS 6 Xposition Yposition Zposition Zrotation Xrotation Yrotation
                  JOINT LeftFinger01
                  {
                    OFFSET -1.1471 -3.4929 2.6334
                    CHANNELS 6 Xposition Yposition Zposition Zrotation Xrotation Yrotation
                    JOINT LeftFinger02
                    {
                      OFFSET -0.823 -2.3 1.6571
                      CHANNELS 6 Xposition Yposition Zposition Zrotation Xrotation Yrotation
                      End Site
                      {
                        OFFSET -0.5822 -1.6914 1.1582
                      }
                    }
                  }
                }
              }
            }
          }
        }
        JOINT RightCollar
        {
          OFFSET -2.2603 21.606 7.4023
          CHANNELS 6 Xposition Yposition Zposition Zrotation Xrotation Yrotation
          JOINT RightShoulder
          {
            OFFSET -13.5187 -1.1334 -5.0155
            CHANNELS 6 Xposition Yposition Zposition Zrotation Xrotation Yrotation
            JOINT RightElbow
            {
              OFFSET 0.0994 -28.0499 -0.2431
              CHANNELS 6 Xposition Yposition Zposition Zrotation Xrotation Yrotation
              JOINT RightWrist
              {
                OFFSET -0.0679 -23.3996 -0.1402
                CHANNELS 6 Xposition Yposition Zposition Zrotation Xrotation Yrotation
                JOINT RightFinger1
                {
                  OFFSET -0.7932 -9.0691 2.5189
                  CHANNELS 6 Xposition Yposition Zposition Zrotation Xrotation Yrotation
                  JOINT RightFinger11
                  {
                    OFFSET 0.8272 -3.3923 0.5977
                    CHANNELS 6 Xposition Yposition Zposition Zrotation Xrotation Yrotation
                    JOINT RightFinger12
                    {
                      OFFSET 0.565 -2.3158 0.4082
                      CHANNELS 6 Xposition Yposition Zposition Zrotation Xrotation Yrotation
                      End Site
                      {
                        OFFSET 0.4919 -1.6479 0.2673
                      }
                    }
                  }
                }
                JOINT RightFinger2
                {
                  OFFSET -0.916 -9.2044 0.2193
                  CHANNELS 6 Xposition Yposition Zposition Zrotation Xrotation Yrotation
                  JOINT RightFinger21
                  {
                    OFFSET -0.0117 -4.1944 -0.0248
                    CHANNELS 6 Xposition Yposition Zposition Zrotation Xrotation Yrotation
                    JOINT RightFinger22
                    {
                      OFFSET -0.0071 -2.3249 -0.0142
                      CHANNELS 6 Xposition Yposition Zposition Zrotation Xrotation Yrotation
                      End Site
                      {
                        OFFSET 0.1475 -2.0882 0.0028
                      }
                    }
                  }
                }
                JOINT RightFinger3
                {
                  OFFSET -0.6113 -8.7231 -2.0637
                  CHANNELS 6 Xposition Yposition Zposition Zrotation Xrotation Yrotation
                  JOINT RightFinger31
                  {
                    OFFSET 0.1927 -3.8059 -0.2383
                    CHANNELS 6 Xposition Yposition Zposition Zrotation Xrotation Yrotation
                    JOINT RightFinger32
                    {
                      OFFSET 0.1091 -2.1688 -0.1362
                      CHANNELS 6 Xposition Yposition Zposition Zrotation Xrotation Yrotation
                      End Site
                      {
                        OFFSET 0.2358 -1.9176 -0.0906
                      }
                    }
                  }
                }
                JOINT RightFinger4
                {
                  OFFSET 0.6151 -8.0947 -3.564
                  CHANNELS 6 Xposition Yposition Zposition Zrotation Xrotation Yrotation
                  JOINT RightFinger41
                  {
                    OFFSET 0.4882 -2.341 -0.6462
                    CHANNELS 6 Xposition Yposition Zposition Zrotation Xrotation Yrotation
                    JOINT RightFinger42
                    {
                      OFFSET 0.3574 -1.7166 -0.4742
                      CHANNELS 6 Xposition Yposition Zposition Zrotation Xrotation Yrotation
                      End Site
                      {
                        OFFSET 0.4187 -1.5237 -0.3496
                      }
                    }
                  }
                }
                JOINT RightFinger0
                {
                  OFFSET 1.4199 -1.8761 1.4221
                  CHANNELS 6 Xposition Yposition Zposition Zrotation Xrotation Yrotation
                  JOINT RightFinger01
                  {
                    OFFSET 1.1472 -3.4929 2.6336
                    CHANNELS 6 Xposition Yposition Zposition Zrotation Xrotation Yrotation
                    JOINT RightFinger02
                    {
                      OFFSET 0.8229 -2.3 1.6571
                      CHANNELS 6 Xposition Yposition Zposition Zrotation Xrotation Yrotation
                      End Site
                      {
                        OFFSET 0.5822 -1.6914 1.1582
                      }
                    }
                  }
                }
              }
            }
          }
        }
      }
    }
  }
  JOINT RightHip
  {
    OFFSET -9.412 3.9771 -0.7758
    CHANNELS 6 Xposition Yposition Zposition Zrotation Xrotation Yrotation
    JOINT RightKnee
    {
      OFFSET -0.7531 -40.938 0
      CHANNELS 6 Xposition Yposition Zposition Zrotation Xrotation Yrotation
      JOINT RightAnkle
      {
        OFFSET 0 -40.1986 0
        CHANNELS 6 Xposition Yposition Zposition Zrotation Xrotation Yrotation
        JOINT RightToe
        {
          OFFSET 0 -4.4182 9.239
          CHANNELS 6 Xposition Yposition Zposition Zrotation Xrotation Yrotation
          End Site
          {
            OFFSET 0 0 6.1981
          }
        }
      }
    }
  }
  JOINT LeftHip
  {
    OFFSET 9.4119 3.9773 -0.7758
    CHANNELS 6 Xposition Yposition Zposition Zrotation Xrotation Yrotation
    JOINT LeftKnee
    {
      OFFSET 0.7532 -40.9383 0
      CHANNELS 6 Xposition Yposition Zposition Zrotation Xrotation Yrotation
      JOINT LeftAnkle
      {
        OFFSET 0 -40.1986 0
        CHANNELS 6 Xposition Yposition Zposition Zrotation Xrotation Yrotation
        JOINT LeftToe
        {
          OFFSET 0 -4.4182 9.239
          CHANNELS 6 Xposition Yposition Zposition Zrotation Xrotation Yrotation
          End Site
          {
            OFFSET 0 0 6.1981
          }
        }
      }
    }
  }
}
MOTION
Frames:	4
Frame Time:	0.0333333
5.80788e-005 67.184 3.4734 0 0 -0 0 8.7983 -4.7612 0 0 -0 0 8.0291 0.4195 0 0 -0 0 9.9351 -2.2114 0 0 -0 0 22.3885 -0.4656 0 0 -0 -0.0001 12.643 3.4389 0 0 -0 2.2603 21.606 7.4023 0 0 -12.5014 13.5163 -1.1332 -5.0146 88.1196 14.2451 10.6914 -0.0995 -28.05 -0.2431 -0.00160068 -0.00239207 0.000740045 0.0679 -23.3996 -0.1402 -8.4365e-005 7.00714e-005 -9.52055e-007 0.7932 -9.069 2.5189 9.93923e-017 -1.98785e-016 -1.59028e-015 -0.8272 -3.3923 0.5977 9.93923e-017 -5.96354e-016 -1.59028e-015 -0.5649 -2.3158 0.4082 -9.93923e-017 -5.96354e-016 -1.59028e-015 0.9159 -9.2044 0.2193 9.93923e-017 -1.98785e-016 -1.59028e-015 0.0117 -4.1944 -0.0248 -0.0128176 0.00232552 8.52707e-005 0.0071 -2.3249 -0.0142 9.93923e-017 5.96354e-016 -0 0.6113 -8.7231 -2.0637 9.93923e-017 -1.98785e-016 -1.59028e-015 -0.1927 -3.8059 -0.2383 -0.0160551 0.00299681 0.000857156 -0.1091 -2.1688 -0.1362 -2.48481e-016 0 3.18055e-015 -0.6151 -8.0947 -3.5641 9.93923e-017 -1.98785e-016 -1.59028e-015 -0.4882 -2.341 -0.6462 -0.0125865 0.0031206 0.00282719 -0.3575 -1.7167 -0.4742 0 1.98785e-016 -0 -1.42 -1.8761 1.4223 9.93923e-017 -1.98785e-016 -1.59028e-015 -1.1471 -3.4929 2.6334 9.93923e-017 -5.96354e-016 -1.59028e-015 -0.823 -2.3 1.6571 -9.93923e-017 -5.96354e-016 -1.59028e-015 -2.2603 21.606 7.4023 -0.865644 0.16582 7.03859 -13.5187 -1.1334 -5.0155 -88.0329 10.2057 -10.5567 0.0994 -28.0499 -0.2431 0.0015593 -0.00248883 -0.000788628 -0.0679 -23.3996 -0.1402 7.87605e-005 4.10553e-005 1.24965e-005 -0.7932 -9.0691 2.5189 -3.97569e-016 -7.95139e-016 3.18055e-015 0.8272 -3.3923 0.5977 -1.98785e-016 -3.97569e-016 3.18055e-015 0.565 -2.3158 0.4082 -1.98785e-016 0 3.18055e-015 -0.916 -9.2044 0.2193 -3.97569e-016 -7.95139e-016 3.18055e-015 -0.0117 -4.1944 -0.0248 0.0129473 0.00231697 -8.70038e-005 -0.0071 -2.3249 -0.0142 9.93923e-017 -7.95139e-016 1.59028e-015 -0.6113 -8.7231 -2.0637 -3.97569e-016 -7.95139e-016 3.18055e-015 0.1927 -3.8059 -0.2383 0.0163314 0.00303369 -0.000872333 0.1091 -2.1688 -0.1362 3.97569e-016 7.95139e-016 -3.18055e-015 0.6151 -8.0947 -3.564 -3.97569e-016 -7.95139e-016 3.18055e-015 0.4882 -2.341 -0.6462 0.0145763 0.00367772 -0.00326275 0.3574 -1.7166 -0.4742 9.93923e-017 -3.97569e-016 -0 1.4199 -1.8761 1.4221 -3.97569e-016 -7.95139e-016 3.18055e-015 1.1472 -3.4929 2.6336 -1.98785e-016 -3.97569e-016 3.18055e-015 0.8229 -2.3 1.6571 -1.98785e-016 0 3.18055e-015 -9.412 3.9771 -0.7758 3.42485 1.36937 -0.0640303 -0.7531 -40.938 0 0.000136572 0.69354 0.00145564 1.77636e-015 -40.1986 -1.11022e-016 -3.42573 -2.06297 -0.0607933 8.88178e-016 -4.4182 9.239 -3.19502e-024 0 -1.48106e-024 9.4119 3.9773 -0.7758 -3.42498 1.36123 0.0639712 0.7532 -40.9383 2.22045e-016 -6.769e-005 0.712612 -0.0012277 8.88179e-016 -40.1986 0 3.42582 -2.07388 0.0612819 -8.88178e-016 -4.4182 9.239 2.55305e-023 0 -2.31416e-026 
-43.7457 2.04076 8.14177 -180 -89.9981 -180 0 8.7983 -4.7612 -0.671198 8.11502 0.155346 0 8.0291 0.4195 -1.38609 16.2276 0.414185 7.10543e-015 9.9351 -2.2114 -1.3861 16.2277 0.414187 -7.10543e-015 22.3885 -0.4656 6.21952e-006 17.9983 -7.46825e-007 -0.0001 12.643 3.4389 4.36576e-007 -55.0006 4.69901e-007 2.2603 21.606 7.4023 15.5839 3.59572 4.31069 13.5163 -1.1332 -5.0146 67.6368 48.9553 -19.1044 -0.0995 -28.05 -0.2431 18.5434 -45.1001 -10.639 0.0679 -23.3996 -0.1402 -5.90695 1.87565 -23.7367 0.7932 -9.069 2.5189 -9.93923e-017 -1.19271e-015 -0 -0.8272 -3.3923 0.5977 3.18055e-015 -3.97569e-016 3.18055e-015 -0.5649 -2.3158 0.4082 -9.93923e-017 -7.95139e-016 -0 0.9159 -9.2044 0.2193 -9.93923e-017 -1.19271e-015 -0 0.0117 -4.1944 -0.0248 -0.0127527 0.00232206 8.21298e-005 0.0071 -2.3249 -0.0142 -4.96962e-016 1.19271e-015 -1.59028e-015 0.6113 -8.7231 -2.0637 -9.93923e-017 -1.19271e-015 -0 -0.1927 -3.8059 -0.2383 -0.0160128 0.00299213 0.000851717 -0.1091 -2.1688 -0.1362 -5.46552e-006 1.13204e-006 1.66311e-006 -0.6151 -8.0947 -3.5641 -9.93923e-017 -1.19271e-015 -0 -0.4882 -2.341 -0.6462 -0.0125716 0.00312163 0.00282383 -0.3575 -1.7167 -0.4742 4.37326e-015 1.98785e-015 -0 -1.42 -1.8761 1.4223 -9.93923e-017 -1.19271e-015 -0 -1.1471 -3.4929 2.6334 3.18055e-015 -3.97569e-016 3.18055e-015 -0.823 -2.3 1.6571 -9.93923e-017 -7.95139e-016 -0 -2.2603 21.606 7.4023 -1.43853 0.726693 -1.56488 -13.5187 -1.1334 -5.0155 -6.47115 34.3901 -18.4489 0.0994 -28.0499 -0.2431 21.1635 -65.046 34.1968 -0.0679 -23.3996 -0.1402 5.47271 1.36259 23.9029 -0.7932 -9.0691 2.5189 -7.98774e-007 -1.49229e-005 4.0521e-006 0.8272 -3.3923 0.5977 -2.82327e-006 -5.08247e-006 -2.24727e-006 0.565 -2.3158 0.4082 -1.63018e-006 1.29785e-008 -4.87873e-007 -0.916 -9.2044 0.2193 -7.98774e-007 -1.49229e-005 4.0521e-006 -0.0117 -4.1944 -0.0248 0.0129867 0.00233002 -0.000100629 -0.0071 -2.3249 -0.0142 -1.59028e-015 3.18055e-015 -2.78299e-015 -0.6113 -8.7231 -2.0637 -7.98774e-007 -1.49229e-005 4.0521e-006 0.1927 -3.8059 -0.2383 0.0163234 0.00303124 -0.000872182 0.1091 -2.1688 -0.1362 -8.15095e-007 1.28842e-008 -2.43979e-007 0.6151 -8.0947 -3.564 -7.98774e-007 -1.49229e-005 4.0521e-006 0.4882 -2.341 -0.6462 0.0146151 0.00368863 -0.00326949 0.3574 -1.7166 -0.4742 -1.63018e-006 5.35926e-007 -4.8797e-007 1.4199 -1.8761 1.4221 -7.98774e-007 -1.49229e-005 4.0521e-006 1.1472 -3.4929 2.6336 -2.82327e-006 -5.08247e-006 -2.24727e-006 0.8229 -2.3 1.6571 -1.63018e-006 1.29785e-008 -4.87873e-007 -9.412 3.9771 -0.7758 -6.85374 -15.387 -3.61631 -0.7531 -40.938 5.55111e-015 4.30526 44.2913 -3.64118 0 -40.1986 0 5.40141 11.5098 11.1903 0 -4.4182 9.239 1.19496e-006 -6.04951e-008 -1.27614e-007 9.4119 3.9773 -0.7758 16.1865 0.957132 1.05343 0.7532 -40.9383 1.11022e-016 -1.46967 11.4684 0.767844 -7.10543e-015 -40.1986 0 -1.03596 27.2928 11.3342 0 -4.4182 9.239 -3.60505e-007 -1.11971e-005 1.23117e-006 
-43.7454 2.03976 8.14164 -180 -89.9981 -180 0 8.7983 -4.7612 -0.671198 8.11502 0.155346 -7.10543e-015 8.0291 0.4195 -1.38609 16.2276 0.414185 0 9.9351 -2.2114 -1.3861 16.2277 0.414187 0 22.3885 -0.4656 6.21952e-006 17.9983 -7.46825e-007 -0.0001 12.643 3.4389 0.78627 -54.9126 0.62399 2.2603 21.606 7.4023 15.5839 3.59572 4.31069 13.5163 -1.1332 -5.0146 67.6368 48.9552 -19.1044 -0.0995 -28.05 -0.2431 18.5433 -45.1001 -10.6391 0.0679 -23.3996 -0.1402 -5.90693 1.87563 -23.7368 0.7932 -9.069 2.5189 -1.78906e-015 -3.97569e-016 -1.59028e-015 -0.8272 -3.3923 0.5977 6.95746e-016 -1.19271e-015 -0 -0.5649 -2.3158 0.4082 2.98177e-016 -1.98785e-015 -4.77083e-015 0.9159 -9.2044 0.2193 -1.78906e-015 -3.97569e-016 -1.59028e-015 0.0117 -4.1944 -0.0248 -0.0128076 0.00232452 8.87977e-005 0.0071 -2.3249 -0.0142 -5.26779e-015 -7.95139e-016 -0 0.6113 -8.7231 -2.0637 -1.78906e-015 -3.97569e-016 -1.59028e-015 -0.1927 -3.8059 -0.2383 -0.01602 0.00298617 0.000857974 -0.1091 -2.1688 -0.1362 3.47873e-015 2.78299e-015 -1.59028e-015 -0.6151 -8.0947 -3.5641 -1.78906e-015 -3.97569e-016 -1.59028e-015 -0.4882 -2.341 -0.6462 -0.0125978 0.00311845 0.00282417 -0.3575 -1.7167 -0.4742 -2.28602e-015 1.59028e-015 -1.59028e-015 -1.42 -1.8761 1.4223 -1.78906e-015 -3.97569e-016 -1.59028e-015 -1.1471 -3.4929 2.6334 6.95746e-016 -1.19271e-015 -0 -0.823 -2.3 1.6571 2.98177e-016 -1.98785e-015 -4.77083e-015 -2.2603 21.606 7.4023 -1.43853 0.726693 -1.56488 -13.5187 -1.1334 -5.0155 -6.47115 34.3901 -18.4489 0.0994 -28.0499 -0.2431 21.7516 -65.5829 34.7303 -0.0679 -23.3996 -0.1402 5.5821 1.25024 23.3987 -0.7932 -9.0691 2.5189 -2.79199e-006 1.37156e-006 4.90028e-006 0.8272 -3.3923 0.5977 -7.52075e-006 -9.52025e-006 3.47643e-006 0.565 -2.3158 0.4082 7.38299e-006 7.58638e-006 -1.49171e-005 -0.916 -9.2044 0.2193 -2.79199e-006 1.37156e-006 4.90028e-006 -0.0117 -4.1944 -0.0248 0.0129654 0.00231703 -9.25858e-005 -0.0071 -2.3249 -0.0142 2.21397e-006 -1.38265e-006 -2.21576e-006 -0.6113 -8.7231 -2.0637 -2.79199e-006 1.37156e-006 4.90028e-006 0.1927 -3.8059 -0.2383 0.0163956 0.00304121 -0.000876751 0.1091 -2.1688 -0.1362 3.61086e-006 -3.37844e-006 -4.66585e-006 0.6151 -8.0947 -3.564 -2.79199e-006 1.37156e-006 4.90028e-006 0.4882 -2.341 -0.6462 0.0146589 0.00369701 -0.00328535 0.3574 -1.7166 -0.4742 3.61079e-006 -2.35544e-006 -4.66599e-006 1.4199 -1.8761 1.4221 -2.79199e-006 1.37156e-006 4.90028e-006 1.1472 -3.4929 2.6336 -7.52075e-006 -9.52025e-006 3.47643e-006 0.8229 -2.3 1.6571 7.38299e-006 7.58638e-006 -1.49171e-005 -9.412 3.9771 -0.7758 -6.92347 -15.6288 -3.82838 -0.7531 -40.938 4.21885e-015 4.33646 45.0964 -3.7197 0 -40.1986 7.10543e-015 5.41128 11.4893 11.1788 -1.42109e-014 -4.4182 9.239 -1.36411e-007 -1.17671e-008 1.64163e-007 9.4119 3.9773 -0.7758 16.1863 0.956229 1.05345 0.7532 -40.9383 2.22045e-016 -1.46969 11.4688 0.76793 0 -40.1986 -1.77636e-015 -1.03566 27.2933 11.3342 0 -4.4182 9.239 2.55863e-006 6.0069e-006 2.62781e-007 
-43.745 2.03876 8.1415 -180 -89.9981 -180 0 8.7983 -4.7612 -0.671198 8.11502 0.155346 0 8.0291 0.4195 -1.38609 16.2276 0.414185 0 9.9351 -2.2114 -1.3861 16.2277 0.414187 0 22.3885 -0.4656 6.21952e-006 17.9983 -7.46825e-007 -0.0001 12.643 3.4389 1.56977 -54.8197 1.24499 2.2603 21.606 7.4023 15.5839 3.59572 4.31069 13.5163 -1.1332 -5.0146 67.6368 48.9552 -19.1044 -0.0995 -28.05 -0.2431 18.5433 -45.1001 -10.6391 0.0679 -23.3996 -0.1402 -5.90693 1.87563 -23.7368 0.7932 -9.069 2.5189 -1.78906e-015 -3.97569e-016 -1.59028e-015 -0.8272 -3.3923 0.5977 6.95746e-016 -1.19271e-015 -0 -0.5649 -2.3158 0.4082 2.98177e-016 -1.98785e-015 -4.77083e-015 0.9159 -9.2044 0.2193 -1.78906e-015 -3.97569e-016 -1.59028e-015 0.0117 -4.1944 -0.0248 -0.0128076 0.00232452 8.87977e-005 0.0071 -2.3249 -0.0142 -5.26779e-015 -7.95139e-016 -0 0.6113 -8.7231 -2.0637 -1.78906e-015 -3.97569e-016 -1.59028e-015 -0.1927 -3.8059 -0.2383 -0.01602 0.00298617 0.000857974 -0.1091 -2.1688 -0.1362 3.47873e-015 2.78299e-015 -1.59028e-015 -0.6151 -8.0947 -3.5641 -1.78906e-015 -3.97569e-016 -1.59028e-015 -0.4882 -2.341 -0.6462 -0.0125978 0.00311845 0.00282417 -0.3575 -1.7167 -0.4742 -2.28602e-015 1.59028e-015 -1.59028e-015 -1.42 -1.8761 1.4223 -1.78906e-015 -3.97569e-016 -1.59028e-015 -1.1471 -3.4929 2.6334 6.95746e-016 -1.19271e-015 -0 -0.823 -2.3 1.6571 2.98177e-016 -1.98785e-015 -4.77083e-015 -2.2603 21.606 7.4023 -1.43853 0.726693 -1.56488 -13.5187 -1.1334 -5.0155 -6.47112 34.3901 -18.4489 0.0994 -28.0499 -0.2431 22.3666 -66.1194 35.2905 -0.0679 -23.3996 -0.1402 5.69071 1.1367 22.8938 -0.7932 -9.0691 2.5189 7.95139e-016 9.54166e-015 -2.98177e-015 0.8272 -3.3923 0.5977 -7.95139e-016 6.36111e-015 -3.77691e-015 0.565 -2.3158 0.4082 -7.95139e-016 3.18055e-015 1.98785e-015 -0.916 -9.2044 0.2193 7.95139e-016 9.54166e-015 -2.98177e-015 -0.0117 -4.1944 -0.0248 0.0129043 0.0023084 -8.56403e-005 -0.0071 -2.3249 -0.0142 -1.43452e-031 -3.18055e-015 -2.5842e-015 -0.6113 -8.7231 -2.0637 7.95139e-016 9.54166e-015 -2.98177e-015 0.1927 -3.8059 -0.2383 0.0163124 0.00302619 -0.000871967 0.1091 -2.1688 -0.1362 1.59028e-015 1.59028e-014 -4.37326e-015 0.6151 -8.0947 -3.564 7.95139e-016 9.54166e-015 -2.98177e-015 0.4882 -2.341 -0.6462 0.0146357 0.00368258 -0.00327135 0.3574 -1.7166 -0.4742 7.95139e-016 0 8.34896e-015 1.4199 -1.8761 1.4221 7.95139e-016 9.54166e-015 -2.98177e-015 1.1472 -3.4929 2.6336 -7.95139e-016 6.36111e-015 -3.77691e-015 0.8229 -2.3 1.6571 -7.95139e-016 3.18055e-015 1.98785e-015 -9.412 3.9771 -0.7758 -6.99425 -15.87 -4.04141 -0.7531 -40.938 3.55271e-015 4.36997 45.9041 -3.8003 0 -40.1986 1.42109e-014 5.42108 11.4688 11.1672 0 -4.4182 9.239 -2.75535e-007 3.93962e-008 3.26054e-007 9.4119 3.9773 -0.7758 16.186 0.954931 1.05345 0.7532 -40.9383 -1.11022e-016 -1.46967 11.47 0.768044 0 -40.1986 8.88179e-016 -1.03534 27.2934 11.3342 0 -4.4182 9.239 1.83004e-006 4.71014e-008 3.07703e-007 
